<svg xmlns="http://www.w3.org/2000/svg" width="20" height="18" viewBox="0 0 20 18">
  <defs>
    <style>
      .arrow-1 {
        fill: #464646;
        fill-rule: evenodd;
      }
    </style>
  </defs>
  <path id="Arrow" class="arrow-1" d="M159.149,8626.85a0.745,0.745,0,0,0,0-1.07,0.762,0.762,0,0,0-1.081,0l-7.641,7.62a0.786,0.786,0,0,0-.224.54c0,0.01,0,.01,0,0.02a0.08,0.08,0,0,0,0,.02,0.738,0.738,0,0,0,.325.6l7.57,7.56a0.765,0.765,0,0,0,1.084,0,0.75,0.75,0,0,0,0-1.07l-6.332-6.33h16.492a0.765,0.765,0,1,0,0-1.53H152.785Zm0,0" transform="translate(-150.188 -8625.56)"/>
</svg>
