<svg xmlns="http://www.w3.org/2000/svg" width="20" height="18" viewBox="0 0 20 18">
  <defs>
    <style>
      .arrow-right {
        fill: #464646;
      }
    </style>
  </defs>
  <path class="arrow-right" d="M1744.57,8641.04a0.743,0.743,0,0,0,0,1.08,0.761,0.761,0,0,0,1.08,0l7.64-7.63a0.773,0.773,0,0,0,.22-0.54v-0.03a0.73,0.73,0,0,0-.32-0.6l-7.57-7.57a0.773,0.773,0,0,0-1.09,0,0.76,0.76,0,0,0,0,1.08l6.34,6.33h-16.5a0.76,0.76,0,1,0,0,1.52h16.56Zm0,0" transform="translate(-1733.59 -8625.53)"/>
</svg>
