<?xml version="1.0" encoding="utf-8"?>
<!-- Generator: Adobe Illustrator 25.0.0, SVG Export Plug-In . SVG Version: 6.00 Build 0)  -->
<svg version="1.1" xmlns="http://www.w3.org/2000/svg" xmlns:xlink="http://www.w3.org/1999/xlink" x="0px" y="0px"
	 viewBox="0 0 6.9 12.4" style="enable-background:new 0 0 6.9 12.4;" xml:space="preserve">
<style type="text/css">
	.cls-1{fill-rule:evenodd;clip-rule:evenodd;fill:#0096BB;}
</style>
<path id="arrow-CTA" class="cls-1" d="M0.6,12.4c-0.2,0-0.3-0.1-0.4-0.2c-0.2-0.2-0.2-0.6,0-0.8c0,0,0,0,0,0l5.2-5.2L0.2,1
	c-0.2-0.2-0.2-0.6,0-0.8c0,0,0,0,0,0C0.3,0.1,0.4,0,0.6,0h0C0.8,0,0.9,0.1,1,0.2l5.7,5.6C6.8,5.9,6.9,6,6.9,6.2
	c0,0.2-0.1,0.3-0.2,0.4L1,12.2C0.9,12.3,0.8,12.4,0.6,12.4L0.6,12.4z"/>
</svg>
