<svg id="Layer_1" data-name="Layer 1" xmlns="http://www.w3.org/2000/svg" viewBox="0 0 48.01 84.62"><defs><style>.cls-1{fill:#f1f7ed;}</style></defs><title>20190815-Tuscany-Garfagnanacte_logomark</title><path class="cls-1" d="M38.67,83.68a.85.85,0,0,1-.75.94h-27a.83.83,0,0,1-.75-.75.85.85,0,0,1,.75-.94H17.1c4.59-5.79,4.51-12.72,4.45-17.68V63.69a.85.85,0,1,1,1.7,0v1.54c.06,5,.14,11.66-4,17.7H30c-4.17-6-4.1-12.73-4-17.7V63.69a.54.54,0,0,1,0-.18.85.85,0,0,1,.94-.76.87.87,0,0,1,.75.94v1.56c-.06,5-.15,11.84,4.44,17.68h5.86A.85.85,0,0,1,38.67,83.68Z"/><path class="cls-1" d="M34.22,62.17l-4.33-3.41a8.63,8.63,0,0,0-10.76,0L14.8,62.17a.87.87,0,0,0-.32.57.77.77,0,0,0,.18.62.83.83,0,0,0,.56.32h.1a.86.86,0,0,0,.53-.19l4.32-3.41a7,7,0,0,1,8.67,0l4.33,3.41a.84.84,0,1,0,1-1.32Z"/><path class="cls-1" d="M43.44,53.15c-6.12-4.87-16.63-14.3-18.33-22.71a.85.85,0,0,0-1.66.33c.95,4.69,5,12.6,18.93,23.7a.79.79,0,0,0,.53.18.82.82,0,0,0,.66-.31A.85.85,0,0,0,43.44,53.15Z"/><path class="cls-1" d="M46.05,44.84c-8.65-3.45-13.42-12.22-16.58-18-2-3.63-3.28-6-4.94-6.42a4.87,4.87,0,0,0-4.11,1c-1,.85-2.16,2.58-2,6v.65c.26,4.54.79,14,7,21.37,4.35,5.19,12.17,10.57,12.5,10.8a.78.78,0,0,0,.47.15.81.81,0,0,0,.7-.37.84.84,0,0,0,.14-.64.92.92,0,0,0-.36-.54c-.08,0-7.94-5.45-12.15-10.48-5.8-6.94-6.29-15.69-6.56-20.39v-.65c-.12-2.17.35-3.77,1.36-4.63A3.2,3.2,0,0,1,24.15,22c.92.21,2.4,2.94,3.84,5.58,3.27,6,8.21,15.11,17.43,18.79a.83.83,0,0,0,1.09-.46h0A.86.86,0,0,0,46.05,44.84Z"/><path class="cls-1" d="M46.74,36.67c-2.78-2-5.67-6.1-8.48-10.06-4.37-6.17-8.89-12.55-13.84-12.55A10.61,10.61,0,0,0,15.86,18,14.39,14.39,0,0,0,13,27c0,1.63.13,4.31.24,6.9.18,3.76.37,8,.32,11-.1,6.06-7,9.07-7,9.1a.85.85,0,0,0-.45,1.11.84.84,0,0,0,.78.52.78.78,0,0,0,.33-.07c.32-.13,8-3.41,8.07-10.63.05-3.08-.15-7.36-.32-11.15-.13-2.69-.25-5.24-.25-6.82,0-5.59,3-11.24,9.74-11.24,4.07,0,8.34,6,12.46,11.83,3,4.26,5.87,8.28,8.87,10.45a.76.76,0,0,0,.63.15.79.79,0,0,0,.55-.34.87.87,0,0,0,.15-.63A.91.91,0,0,0,46.74,36.67Z"/><path class="cls-1" d="M47.29,28.41l-1.74-2.7c-5.4-8.48-12.13-19-21.34-19C14.83,6.71,9.33,13.65,8,20.53c-.88,4.67-.49,10.21-.14,15.09.27,3.81.51,7.1,0,8.73a10.89,10.89,0,0,1-4.46,5.58.92.92,0,0,0-.39.52.85.85,0,0,0,.61,1l.21,0a1,1,0,0,0,.43-.11,12.55,12.55,0,0,0,5.26-6.6c.58-1.92.33-5.36,0-9.34-.34-4.78-.73-10.19.11-14.64,1.17-6.2,6.11-12.45,14.52-12.45S39,18.49,44.15,26.62l.07.11c.57.9,1.13,1.77,1.67,2.6a.86.86,0,0,0,.54.37.83.83,0,0,0,.86-1.29Z"/><path class="cls-1" d="M47.93,17.9c-3.59-7-7.75-11.9-12.38-14.79A20.66,20.66,0,0,0,24.28,0C16.6,0,10.58,2.87,6.39,8.54,2,14.54.57,22.35.18,27.87a48.42,48.42,0,0,0,1.3,16,.82.82,0,0,0,.81.6h.25a.86.86,0,0,0,.56-1.06C1.1,36.83.33,19.58,7.75,9.55c3.85-5.21,9.42-7.86,16.53-7.86,5.75,0,14.29,1.76,22.14,17a.84.84,0,0,0,1.13.31.86.86,0,0,0,.37-1.14Z"/><path class="cls-1" d="M24.55,53.67A17.76,17.76,0,0,1,20.08,48a1.32,1.32,0,0,0-2.53.2,12.85,12.85,0,0,1-8,9.56A.84.84,0,0,0,9,58.82H9a.81.81,0,0,0,1,.56l.06,0A14.53,14.53,0,0,0,19,49.6a22.39,22.39,0,0,0,4.4,5.34.87.87,0,1,0,1.19-1.27Z"/></svg>