<svg width="54" height="38" viewBox="0 0 54 38" fill="none" xmlns="http://www.w3.org/2000/svg">
<path d="M22.857 35.5418H22.8568C11.2939 35.5407 2.1951 26.1303 2.1951 14.6349V14.6349V14.6349V14.6348V14.6348V14.6348V14.6348V14.6348V14.6347V14.6347V14.6347V14.6347V14.6346V14.6346V14.6346V14.6346V14.6345V14.6345V14.6345V14.6345V14.6345V14.6344V14.6344V14.6344V14.6344V14.6343V14.6343V14.6343V14.6343V14.6342V14.6342V14.6342V14.6342V14.6341V14.6341V14.6341V14.6341V14.6341V14.634V14.634V14.634V14.634V14.6339V14.6339V14.6339V14.6339V14.6338V14.6338V14.6338V14.6338V14.6337V14.6337V14.6337V14.6337V14.6336V14.6336V14.6336V14.6336V14.6336V14.6335V14.6335V14.6335V14.6335V14.6334V14.6334V14.6334V14.6334V14.6333V14.6333V14.6333V14.6333V14.6332V14.6332V14.6332V14.6332V14.6331V14.6331V14.6331V14.6331V14.633V14.633V14.633V14.633V14.6329V14.6329V14.6329V14.6329V14.6328V14.6328V14.6328V14.6328V14.6327V14.6327V14.6327V14.6327V14.6327V14.6326V14.6326V14.6326V14.6326V14.6325V14.6325V14.6325V14.6325V14.6324V14.6324V14.6324V14.6323V14.6323V14.6323V14.6323V14.6322V14.6322V14.6322V14.6322V14.6321V14.6321V14.6321V14.6321V14.632V14.632V14.632V14.632V14.6319V14.6319V14.6319V14.6319V14.6318V14.6318V14.6318V14.6318V14.6317V14.6317V14.6317V14.6316V14.6316V14.6316V14.6316V14.6315V14.6315V14.6315V14.6315V14.6314V14.6314V14.6314V14.6314V14.6313V14.6313V14.6313V14.6313V14.6312V14.6312V14.6312V14.6312V14.6311V14.6311V14.6311V14.6311V14.6311V14.631V14.631V14.631V14.631V14.6309V14.6309V14.6309V14.6309V14.6308V14.6308V14.6308V14.6308V14.6308V14.6308V14.6307V14.6307V14.6307V14.6307V14.6307V14.6307V14.6306V14.6306V14.6306V14.6306V14.6306V14.6306V14.6306V14.6305V14.6305V14.6305V14.6305V14.6305V14.6305V14.6305V14.6304V14.6304V14.6304V14.6304V14.6304V14.6304V14.6304V14.6303V14.6303V14.6303V14.6303V14.6303V14.6303V14.6303V14.6302V14.6302V14.6302V14.6302V14.6302V14.6302V14.6302V14.6301V14.6301V14.6301V14.6301V14.6301V14.6301V14.63V14.63V14.63V14.63V14.63V14.63V14.63V14.6299V14.6299V14.6299V14.6299V14.6299V14.6299V14.6299V14.6298V14.6298V14.6298V14.6298V14.6298V14.6298V14.6297V14.6297V14.6297V14.6297V14.6297V14.6297V14.6297V14.6296V14.6296V14.6296V14.6296V14.6296V14.6296V14.6295V14.6295V14.6295V14.6295V14.6295V14.6295V14.6295V14.6294V14.6294V14.6294V14.6294V14.6294V14.6294V14.6293V14.6293V14.6293V14.6293V14.6293V14.6293V14.6292V14.6292V14.6292V14.6292V14.6292V14.6292V14.6292V14.6291V14.6291V14.6291V14.6291V14.6291V14.6291V14.629V14.629V14.629V14.629V14.629V14.629V14.6289V14.6289V14.6289V14.6289V14.6289V14.6289V14.6288V14.6288V14.6288V14.6288V14.6288V14.6288V14.6287V14.6287V14.6287V14.6287V14.6287V14.6287V14.6286V14.6286V14.6286V14.6286V14.6286V14.6286V14.6285V14.6285V14.6285V14.6285V14.6285V14.6285V14.6284V14.6284V14.6284V14.6284V14.6284V14.6284V14.6283V14.6283V14.6283V14.6283V14.6283V14.6283V14.6282V14.6282V14.6282V14.6282V14.6282V14.6282V14.6281V14.6281V14.6281V14.6281V14.6281V14.6281V14.628V14.628V14.628V14.628V14.628V14.6279C2.1951 7.71412 7.54549 2 14.5811 2C21.5894 2 27.0915 7.68811 27.0915 14.6349C27.0915 19.5883 24.2142 23.8641 20.0611 25.9367C20.8836 26.1249 21.7395 26.2243 22.62 26.2243C25.2016 26.2243 27.2708 28.319 27.2708 30.883C27.2708 33.1904 25.6779 35.5418 22.857 35.5418Z" fill="#990000" stroke="white" stroke-width="4"/>
<path d="M47.7664 35.5418H47.7662C36.2053 35.5407 27.0895 26.1324 27.0895 14.6349V14.6349V14.6349V14.6348V14.6348V14.6348V14.6348V14.6348V14.6347V14.6347V14.6347V14.6347V14.6346V14.6346V14.6346V14.6346V14.6345V14.6345V14.6345V14.6345V14.6345V14.6344V14.6344V14.6344V14.6344V14.6343V14.6343V14.6343V14.6343V14.6342V14.6342V14.6342V14.6342V14.6341V14.6341V14.6341V14.6341V14.6341V14.634V14.634V14.634V14.634V14.6339V14.6339V14.6339V14.6339V14.6338V14.6338V14.6338V14.6338V14.6337V14.6337V14.6337V14.6337V14.6336V14.6336V14.6336V14.6336V14.6336V14.6335V14.6335V14.6335V14.6335V14.6334V14.6334V14.6334V14.6334V14.6333V14.6333V14.6333V14.6333V14.6332V14.6332V14.6332V14.6332V14.6331V14.6331V14.6331V14.6331V14.633V14.633V14.633V14.633V14.6329V14.6329V14.6329V14.6329V14.6328V14.6328V14.6328V14.6328V14.6327V14.6327V14.6327V14.6327V14.6327V14.6326V14.6326V14.6326V14.6326V14.6325V14.6325V14.6325V14.6325V14.6324V14.6324V14.6324V14.6323V14.6323V14.6323V14.6323V14.6322V14.6322V14.6322V14.6322V14.6321V14.6321V14.6321V14.6321V14.632V14.632V14.632V14.632V14.6319V14.6319V14.6319V14.6319V14.6318V14.6318V14.6318V14.6318V14.6317V14.6317V14.6317V14.6316V14.6316V14.6316V14.6316V14.6315V14.6315V14.6315V14.6315V14.6314V14.6314V14.6314V14.6314V14.6313V14.6313V14.6313V14.6313V14.6312V14.6312V14.6312V14.6312V14.6311V14.6311V14.6311V14.6311V14.6311V14.631V14.631V14.631V14.631V14.6309V14.6309V14.6309V14.6309V14.6308V14.6308V14.6308V14.6308V14.6308V14.6308V14.6307V14.6307V14.6307V14.6307V14.6307V14.6307V14.6306V14.6306V14.6306V14.6306V14.6306V14.6306V14.6306V14.6305V14.6305V14.6305V14.6305V14.6305V14.6305V14.6305V14.6304V14.6304V14.6304V14.6304V14.6304V14.6304V14.6304V14.6303V14.6303V14.6303V14.6303V14.6303V14.6303V14.6303V14.6302V14.6302V14.6302V14.6302V14.6302V14.6302V14.6302V14.6301V14.6301V14.6301V14.6301V14.6301V14.6301V14.63V14.63V14.63V14.63V14.63V14.63V14.63V14.6299V14.6299V14.6299V14.6299V14.6299V14.6299V14.6299V14.6298V14.6298V14.6298V14.6298V14.6298V14.6298V14.6297V14.6297V14.6297V14.6297V14.6297V14.6297V14.6297V14.6296V14.6296V14.6296V14.6296V14.6296V14.6296V14.6295V14.6295V14.6295V14.6295V14.6295V14.6295V14.6295V14.6294V14.6294V14.6294V14.6294V14.6294V14.6294V14.6293V14.6293V14.6293V14.6293V14.6293V14.6293V14.6292V14.6292V14.6292V14.6292V14.6292V14.6292V14.6292V14.6291V14.6291V14.6291V14.6291V14.6291V14.6291V14.629V14.629V14.629V14.629V14.629V14.629V14.6289V14.6289V14.6289V14.6289V14.6289V14.6289V14.6288V14.6288V14.6288V14.6288V14.6288V14.6288V14.6287V14.6287V14.6287V14.6287V14.6287V14.6287V14.6286V14.6286V14.6286V14.6286V14.6286V14.6286V14.6285V14.6285V14.6285V14.6285V14.6285V14.6285V14.6284V14.6284V14.6284V14.6284V14.6284V14.6284V14.6283V14.6283V14.6283V14.6283V14.6283V14.6283V14.6282V14.6282V14.6282V14.6282V14.6282V14.6282V14.6281V14.6281V14.6281V14.6281V14.6281V14.6281V14.628V14.628V14.628V14.628V14.628V14.6279C27.0895 7.71029 32.4586 2 39.4904 2C46.4968 2 52.0089 7.68611 52.0089 14.6349C52.0089 19.5875 49.1343 23.8634 44.9823 25.9363C45.8055 26.1248 46.6622 26.2243 47.5433 26.2243C50.124 26.2243 52.1951 28.318 52.1951 30.883C52.1951 33.208 50.5718 35.5418 47.7664 35.5418Z" fill="#990000" stroke="white" stroke-width="4"/>
</svg>
